<?xml version="1.0" standalone="no"?>
<!DOCTYPE svg PUBLIC "-//W3C//DTD SVG 20010904//EN"
 "http://www.w3.org/TR/2001/REC-SVG-20010904/DTD/svg10.dtd">
<svg version="1.0" xmlns="http://www.w3.org/2000/svg"
 width="700.000000pt" height="700.000000pt" viewBox="0 0 700.000000 700.000000"
 preserveAspectRatio="xMidYMid meet">
<metadata>
Created by potrace 1.14, written by Peter Selinger 2001-2017
</metadata>
<g transform="translate(0.000000,700.000000) scale(0.100000,-0.100000)"
fill="#000000" stroke="none">
<path d="M3352 6913 c-12 -49 -24 -95 -26 -103 -28 -107 -70 -331 -82 -435 -3
-33 -8 -68 -10 -78 -8 -44 -17 -275 -16 -396 l2 -134 -33 39 c-80 98 -210 216
-287 263 -58 35 -212 107 -265 124 -138 45 -269 62 -455 60 -202 -2 -196 0
-192 -58 8 -163 150 -514 274 -680 71 -96 200 -222 286 -278 128 -86 308 -155
442 -172 86 -10 115 -14 120 -14 3 -1 -11 -11 -30 -24 -41 -25 -89 -67 -137
-118 l-33 -36 -80 79 c-44 43 -87 78 -95 78 -8 0 -15 4 -15 8 0 19 -151 82
-256 107 -51 12 -246 13 -289 2 -117 -30 -177 -55 -261 -109 -172 -110 -296
-299 -330 -503 -4 -22 -8 -80 -8 -128 l-1 -88 -59 -24 c-168 -68 -333 -240
-399 -416 -71 -189 -60 -412 28 -591 91 -184 213 -290 437 -382 36 -14 37 -16
27 -43 -12 -31 -14 -40 -27 -125 -34 -221 53 -467 226 -633 83 -81 221 -156
340 -185 42 -11 43 -12 37 -41 -43 -194 -7 -400 96 -560 104 -161 263 -276
445 -324 31 -8 59 -16 60 -18 2 -2 -3 -37 -12 -78 -16 -76 -20 -190 -9 -263
47 -308 279 -554 585 -620 74 -16 262 -14 325 4 186 52 341 161 440 310 37 56
97 173 94 183 -1 1 4 20 10 42 9 36 15 72 25 172 4 41 -20 207 -34 233 -6 11
-7 20 -3 21 110 10 281 92 377 180 161 148 247 338 248 544 0 55 -5 122 -11
149 -7 27 -10 51 -7 53 2 2 30 11 61 19 260 68 474 291 532 556 22 99 20 253
-5 344 l-19 72 41 12 c66 19 185 87 248 142 114 98 201 240 237 382 25 97 25
261 1 356 -59 229 -223 422 -429 506 l-56 23 -1 88 c-2 145 -24 237 -86 353
-107 202 -287 338 -506 383 -90 19 -253 15 -337 -7 -114 -30 -240 -103 -327
-187 l-79 -76 -57 59 c-31 32 -77 72 -101 89 -24 16 -40 30 -35 30 5 1 18 3
29 4 11 1 46 5 78 9 144 17 340 94 466 183 93 65 227 205 293 305 132 201 228
445 254 649 l6 45 -49 4 c-137 9 -419 0 -443 -15 -4 -3 -25 -7 -46 -11 -121
-19 -324 -109 -443 -197 -115 -84 -243 -226 -314 -347 l-27 -45 5 50 c10 109
16 161 20 185 2 14 7 48 10 75 5 46 29 204 40 265 11 61 77 381 89 435 8 33
14 61 13 62 -3 2 -207 123 -247 146 -19 11 -55 31 -80 45 -25 14 -73 43 -108
64 -34 21 -64 38 -65 38 -2 0 -13 -39 -25 -87z"/>
</g>
</svg>
